<?xml version="1.0" encoding="utf-8"?>
<!-- Generator: Adobe Illustrator 21.0.0, SVG Export Plug-In . SVG Version: 6.00 Build 0)  -->
<svg version="1.1" id="Layer_5" xmlns="http://www.w3.org/2000/svg" xmlns:xlink="http://www.w3.org/1999/xlink" x="0px" y="0px"
	 viewBox="0 0 380 239.5" style="enable-background:new 0 0 380 239.5;" xml:space="preserve">
<style type="text/css">
	.st0{fill:#FFFFFF;}
	.st1{fill:none;stroke:#242424;stroke-width:4;stroke-linecap:round;stroke-miterlimit:10;}
	.st2{display:none;fill:#FFFFFF;}
	.st3{fill:#E6E6E6;}
	.st4{fill:#FFFFFF;stroke:#242424;stroke-width:4;stroke-linecap:round;stroke-miterlimit:10;}
	.st5{fill:#FFFFFF;stroke:#242424;stroke-width:4;stroke-linecap:round;stroke-linejoin:round;stroke-miterlimit:10;}
	.st6{fill:#242424;stroke:#242424;stroke-width:4;stroke-linecap:round;stroke-miterlimit:10;}
	.st7{stroke:#242424;stroke-width:4;stroke-linecap:round;stroke-miterlimit:10;}
	.st8{fill:#FFFFFF;stroke:#242424;stroke-width:8;stroke-linecap:round;stroke-miterlimit:10;}
	.st9{fill:#242424;stroke:#242424;stroke-width:4;stroke-linecap:round;stroke-linejoin:round;stroke-miterlimit:10;}
</style>
<g id="Layer_4_1_">
	<path class="st0" d="M180.1,211.6l8.1,11.8l5.4,4.5L189,236l-8.9,3.5l-16.8-0.1l-3-6.4l7.6-12.8c0,0,6.7-5.4,7.2-5.7
		C175.7,214.2,180.1,211.6,180.1,211.6z"/>
	<path class="st1" d="M228.2,29.5c-3.8-7.3-3.3-12.7-3.3-12.7s2.8-6.9,9.2,1.9"/>
	<path class="st1" d="M236.6,32.5c-4.6-8.8-2-16.6-2-16.6s6.5-14.9,9.8,0.9"/>
	<path class="st1" d="M247.7,32.5c-4.8-3.8-2.9-13-2.9-13s3.6-18.9,11.1-3.6"/>
</g>
<g id="Layer_12">
	<path class="st2" d="M301,25.3v214.2h-76.8l-11.2-2.1l-20-14.5l-6-4.4l-2.9-2.1l-4.9-7.9l0,0l-14.9-24.1l-1.2-1.9l-0.4-2l0,0
		l-8.6-47l3-31l14-34l16-21L215,26.4l0,0l1.1-0.9l13.7-5.8h3.5l0,0h15.6l0,0h22.9h10.5h0.1l16.6,4.7l0.8,0.4L301,25.3z"/>
</g>
<g id="Layer_3">
</g>
<g id="Layer_2">
	<path class="st3" d="M289.1,19.5c0,0,23.2,4.8,45.8,32.2c22.6,27.3,23.6,53.7,23.6,53.7s6.8,64.8-15.7,93.2
		c-22.5,28.5-33.8,36.9-33.8,36.9l-11.4,3.4l-1-84.6L298,69l-15.6-49.5H289.1"/>
	<path class="st1" d="M306,239.6"/>
	<path class="st3" d="M333.9,212.3L301,239.4l77,0.2C378,239.6,359.5,210.4,333.9,212.3z"/>
	<path class="st3" d="M184.1,216.4c0,0,15.6,16.7-10.4,23l45.9,0.1L184.1,216.4"/>
</g>
<g id="Layer_4">
	<g>
		<path class="st3" d="M236,143.4c0,0,0.7,0.8,2,2.1C237.5,144.5,236.8,143.8,236,143.4z"/>
		<path class="st3" d="M299.9,24.8c-1.1-1.1-2-1.9-2.8-2.4c-2.2-1.3-4.9-2.2-8-2.9h-6.7h-0.1h-10.5h-23.3c0.1,0,0.2,0,0.3,0l0,0
			c22.8,3,29.8,41.7,20.2,62.8c-4.4,9.7-10.7,13-16.4,13.6c-4.6,0.5-8.8-0.7-11.3-1.6l4.9,2.2h0.1l10.7,4.8c4,20-9,8-9,8
			s0,0.5,0,1.4c0.1,2.7,0.3,8.5,1.5,10.9c0.1,0.3,0.3,0.5,0.5,0.7c1.3,1.3-0.8,4.4-2.4,6.3c-0.2,0.3-0.5,0.5-0.7,0.8l-4.1,0.8l0,0
			l-0.8,0.1l-4-1c0,0,3,8,7,7c3.9-1,17-2.9,13.4-12c4.5,0.1,41.1,1.6,18.6,27c-14.1,15.9-32.9,0.1-39-5.9c0.7,1.3,1.3,3.1,2.1,5.1
			l-1.6,2.2l-2.5,3.6l-2.6,2.7l-0.4,0.3h-0.2l0,0h-0.1l-3.4-0.8c-0.6-0.7-1.6-1.7-2.8-2.4l0,0c-1.3-0.8-2.8-1.3-4.3-0.7
			c0.1,0.2,0.2,0.5,0.4,0.7c0.3,0.4,0.7,0.8,1.2,1.1l-3.1-0.7c0.1-0.1,0.2-0.2,0.2-0.2c0.4-0.4,0.8-0.7,1.3-0.9
			c-0.2-0.4-0.3-0.8-0.3-1.3l0,0c0-0.2,0-0.5,0.1-0.7c1-5,8-10,8-10s1.8,0.5,2.7,0.4c0.3,0,0.5,0,0.5-0.2c0-0.1,0-0.2-0.2-0.3
			c-1-1-2-8-7-8c-4.1,0-5.4,8.2-7,13c-1,3-8,7-12,1c-3.4-5.1-8.9,2.3-9.8,3.8c-0.3-2.5,0.8-5.7,4.8-9.8l0,0c0,0,0.1-0.1,0.2-0.4
			c1.2-2.8,8.6-20.3,5.8-28.6c-0.1-0.3-0.2-0.5-0.3-0.8l0,0c-3-8.9-7.7-20.2-7.7-20.2l-1.9,0.5l-9.1,2.5c0,0,0.2,0.2,0.6,0.6
			c2.6,2.7,12.8,13.8,8.4,16.4c-0.1,0.1-0.3,0.2-0.4,0.2c-4.6,3-4.6,6.8-4.6,6.8s1.9,1.2,3.5,2.8c2.2,2.2,3.7,5.3-1.2,7.1
			c-0.1,0-0.2,0.1-0.3,0.1c-1.1,0.3-1.5,0.7-1.5,1.1c-0.1,0.5,0.5,0.9,0.5,0.9s0.1,0.1,0.3,0.2c-2.2-0.2-4.4-1.1-6.3-3.1
			c0.5,0.8,4.7,6.8,8.9,7.8c1.4,4.4,1.4,11.8-6,23.1c-13,20-4,33-4,37s4-10,4-10s0.1-0.5,0.2-1.5l0,0c0.8-5.7,4-25.7,10.8-26.5
			c0,0,12,11,18,11c4.6,0,25.4,3.8,26.8-6.5c4.1,6.3,9.9,14.2,14.2,19.1c0.2,2.3-0.2,4.7-1.9,6.5c-2,2-10.2,2.1-19.3,1.4
			c-13.4-1-28.7-3.4-28.7-3.4h-14c0,0,0.7,0.5,1.8,1.3l0,0c4.9,3.5,18.3,12.7,23.2,12.7c6,0,15-5.9,18-5c10,3,1,11,1,11s-12,6-17,5
			c-0.3-0.1-0.7-0.1-1-0.2l0,0c-4.6-1-9.6-2.7-9.9-2.8c0.1,0.1,0.7,0.5,1.5,1.1l0,0c3,2.2,8.9,7.1,7.4,10.9c-2,5-6,9-12,7
			c-3.3-1.1-10.1-2.2-17.1-5.6c-1.6-0.8-3.2-1.6-4.7-2.6c1.1,1.5,2.1,2.8,3,4.1l0,0c2.2,3,3.8,5.1,3.8,5.1l19.5,10H301V26
			C300.6,25.6,300.2,25.1,299.9,24.8z M202,159.3c-0.2-0.1-4-1.9-4.8-5.7L202,159.3z M268,207.4c-2.7,0.4-5,1.2-6.8,2.2
			c-0.2-0.7-0.3-1.4-0.2-2.2c0.8-6.2,6.1-15,7-20c2.4,0,2.7-0.5,13.7-6.7C280.8,188.9,277.9,205.9,268,207.4z"/>
		<path class="st3" d="M241.3,94.4l-2.3-1C239,93.4,239.8,93.9,241.3,94.4z"/>
		<path class="st3" d="M239,127.4c-1-1,2-5,2-5s12.8-9.1,3-12c-10-3-3.4-11.9-5-14c-3.2-4.1-6,0-6,0C213,129.4,240,128.4,239,127.4z
			"/>
		<path class="st3" d="M177,208.4c3,5.3,7,9.1,11.2,11.8C180.9,210.5,171,197.8,177,208.4z"/>
	</g>
</g>
<g id="Layer_1">
	<path class="st1" d="M215.1,239.6c0,0-0.1,0-0.1-0.1c-8.4-3.8-16.4-8.8-23.6-15.1l0,0c-2.7-2.4-5.3-4.9-7.7-7.7l0,0
		c-2.4-2.7-4.6-5.6-6.7-8.7c-0.2-0.4-0.5-0.7-0.7-1.1l0,0c-4.9-7.4-8.8-15-12-22.5c-0.5-1.3-1.1-2.6-1.6-3.9l0,0
		c-15.3-40.6-8.2-80.9,2.3-101.6c15.2-30,35-45,50-52.5l0,0c7.9-4,14.5-5.8,18.3-6.6l0,0"/>
	<path class="st1" d="M301,239.4c13-4.1,58-34.9,59-111.7S301.1,23.9,301.1,23.9c-3.7-1.9-7.5-3.3-11.4-4.4h-0.1"/>
	<path class="st4" d="M241.1,206.4c0,0-19.6,16-39.1-4.7"/>
	<path class="st1" d="M202,159.4c0,0-3.9-0.7-4.9-5.8s4.9-10.2,4.9-10.2s11-26,3-38"/>
	<path class="st4" d="M232.7,159.4c0,0,3.6-1.5,5.8-6.5s-5.8-9.5-5.8-9.5"/>
	<path class="st5" d="M205.3,156.6c0,0-0.5-2.6,1.6-2.1l1.6,2.1C208.5,156.6,206.3,156,205.3,156.6z"/>
	<path class="st5" d="M227.6,156.5c0.7,0,1.5-2.9-2.9-2.9s-5.1,2.9-5.1,2.9s5.4-1.1,8.4-0.1"/>
	<path class="st6" d="M188.2,111.5c0,0,4.7-4.7,8.1,0c3.5,4.7,3.5,10.6,0,11.8C192.9,124.5,182.4,124.5,188.2,111.5z"/>
	<path class="st6" d="M240.1,113c0,0,6.3-5.2,9.4-1c3.1,4.1,1,10.3-2.1,11.4C244.2,124.4,234.8,124.4,240.1,113z"/>
	<path class="st7" d="M238.9,127.8c0,0,2.3,4.9,12.1,1.3"/>
	<path class="st4" d="M189.3,129c0,0,2.9,4.2,8.4,1.8"/>
	<path class="st8" d="M180,99.4c0,0,12-8,20-5"/>
	<path class="st8" d="M235,93.4c0,0,15-3,21,6"/>
	<path class="st9" d="M194.7,187c0,0,8.6-9.8,15.9-7.3c7.3,2.4,11,0,11,0s11-1.2,17.1,3.7s8.6,6.1,8.6,6.1h9.8
		c-6.1-1.2-23.2,2.4-33,4.9s-18.3-2.4-18.3-2.4s-9.8-4.9-14.7-6.1L194.7,187"/>
	<path class="st4" d="M194.7,187"/>
	<path class="st1" d="M378,239.6c-17.3-27.2-44.1-27.3-44.1-27.3"/>
	<path class="st1" d="M179.6,212.3c0,0-20.6,7.7-17.6,26.7"/>
</g>
<g id="Layer_6">
	<path class="st1" d="M289.1,19.5c0,0-30.8-8-57.8,0"/>
</g>
</svg>
