<?xml version="1.0" encoding="utf-8"?>
<!-- Generator: Adobe Illustrator 21.0.0, SVG Export Plug-In . SVG Version: 6.00 Build 0)  -->
<svg version="1.1" id="Layer_3" xmlns="http://www.w3.org/2000/svg" xmlns:xlink="http://www.w3.org/1999/xlink" x="0px" y="0px"
	 viewBox="0 0 380 220" style="enable-background:new 0 0 380 220;" xml:space="preserve">
<style type="text/css">
	.st0{fill:#E6E6E6;}
	.st1{fill:none;stroke:#242424;stroke-width:4;stroke-linecap:round;stroke-miterlimit:10;}
	.st2{fill:#FFFFFF;stroke:#242424;stroke-width:4;stroke-linecap:round;stroke-miterlimit:10;}
	.st3{fill:#242424;stroke:#242424;stroke-width:4;stroke-linecap:round;stroke-linejoin:round;stroke-miterlimit:10;}
	.st4{fill:#242424;stroke:#242424;stroke-width:4;stroke-linecap:round;stroke-miterlimit:10;}
	.st5{fill:none;stroke:#242424;stroke-width:8;stroke-linecap:round;stroke-miterlimit:10;}
	.st6{fill:#FFFFFF;stroke:#242424;stroke-width:8;stroke-linecap:round;stroke-miterlimit:10;}
	.st7{fill:none;stroke:#242424;stroke-width:4;stroke-linecap:round;stroke-linejoin:round;stroke-miterlimit:10;}
	.st8{fill:#FFFFFF;stroke:#242424;stroke-width:4;stroke-linecap:round;stroke-linejoin:round;stroke-miterlimit:10;}
	.st9{stroke:#242424;stroke-width:4;stroke-linecap:round;stroke-miterlimit:10;}
	.st10{fill:#242424;stroke:#242424;stroke-miterlimit:10;}
	.st11{fill:none;stroke:#242424;stroke-width:2;stroke-linecap:round;stroke-miterlimit:10;}
</style>
<g id="Layer_10">
	<g>
		<path class="st0" d="M223.7,83.5c9,0,9-13,9-13s2-5-11,5s-15-4-15-4C204.7,79.5,214.7,83.5,223.7,83.5z"/>
		<path class="st0" d="M193,122.9L193,122.9c-0.1,0.2-0.1,0.3-0.3,0.6c-0.3,0.8-0.4,1.7-0.3,2.7c0.1-0.4,0.2-0.8,0.3-1.2v-0.1
			C193.2,123.1,193.4,122,193,122.9z M278.6,24.3l-1.6-0.6l-0.6-0.2c0,0-0.1,0-0.3,0.1c-0.1,0-0.2,0.1-0.3,0.1
			c-3.2,1.5-19,9.8-17.2,28.8c1,10.3,5.2,18,8,24.7c3.8,11.7-2.2,16.4-7.1,18.3c-0.6,0-0.9,0-0.9,0s-0.2,0.2-0.2,0.4
			c-1.8,0.6-3.4,0.8-4.1,0.8c-0.1,0-0.2,0.1-0.3,0.1c-0.2,0.1-0.4,0.1-0.6,0.2c-0.7,0.3-1.7,0.8-1.7,1.2l0,0c0,0.2,0.5,0.4,1.8,0.4
			c0.7,0,1.8-0.1,3.2-0.2c-0.3,0.3-0.7,0.5-1.1,0.7c-2.1,0.9-5.9,1.3-10,1.3l0,0c-0.3,0-0.7,0-1,0c-0.6,0-1.2,0-1.8,0l-6.9-0.4l0,0
			l-4.4-0.2c-2.2-0.2-3.5-0.4-3.5-0.4v0.2l-3-0.2l-3.9,1.2l0,0l-2.7,0.8h-0.1l-4.4,1.4c0.3-1,0.7-2.2,1.1-3.5c0,0-2.7,3.8-5.7,8.5
			c-3.9,6.1-8.3,13.7-8.3,17v0.5c1,5,2,15,0,15l-0.4-0.1c-2.1-1.1-7.3-8.9-7.8-14.1c-0.4,1.8-1,4-1.5,5.9c-0.5,2-1,3.6-1.1,4.2
			c0,0.1-0.1,0.2-0.1,0.2l0.4,0.6l0,0l0,0l0,0l-2.7-0.7l-0.5,1.4c-0.8-1.1-1.5-2.5-2.1-3.8l0,0c-0.8-1.7-1.3-3.3-1.3-4.6
			c0-1,0.5-2.2,1.4-3.5c1.3-2.1,3.4-4.3,5-6l0,0c1.5-1.5,2.6-2.5,2.6-2.5l4.2-1.7l0.8-0.3l0,0c-0.1,0-0.2-0.1-0.4-0.2
			c-1-0.6-3.5-2.2-6.6-3.8l3.5,1.2l4,1.4l1.6,0.6l3-14l-5.6-10.3l0,0l-0.7-1.4l-0.7-1.3l-11-10c0,0-7-5-7,4s5,12,6,13s8,2,8,2
			s4,5,2,6c-0.7,0.3-1.8,0.7-2.9,1l0,0c-0.6,0.1-1.1,0.3-1.7,0.4c-1.8,0.4-3.4,0.7-3.4,0.7s-9-3-8,2c0,0-7,4-5,8s8,12,7,19
			c-0.5,3.9-2,12.4-3.1,20c-0.8,6.1-1.4,11.7-0.9,14c1,5,4,15,0,12c-2.7-2-3.6-16.5-4.2-27.5c-0.3-5.2-0.5-9.6-0.8-11.5
			c-1-6-6-10-7-16s-6-1-3,10s6,13,6,22s3,27,4,29c0.9,1.8,9.4,5,10.8,1.2c0.2-0.6,0.3-1.3,0.2-2.2c-0.6-4.2-0.8-12.3-0.1-19.6l0,0
			c0.3-2.5,0.6-5,1.2-7.1c0.5-2.1,1.1-3.9,1.9-5.3c2.9-5.1,4.2-8.6,4.7-10.1c0.2-0.6,0.3-0.9,0.3-0.9s-0.3-0.4-0.7-1l2.8,1.3
			l-2.1-0.3c0,0,13,11,7,18c-1.2,1.4-1.1,2-0.1,2.1l0,0c1.7,0.1,5.7-1.5,9.8-3.2c0,0,0.1,0,0.1-0.1c0.1,0.1,0.2,0.2,0.3,0.3
			c0.7,0.5,1.5,0.8,2.5,0.7l0,0c0.7-0.1,1.5-0.3,2.3-0.8c2-1,3.7-2,5-3.1v4.1l15-1c0,0,2.1,2.5,4.6,4.3l-14.6-3.3l-27,11l-2.6,7.2
			l0,0l-1.3,3.7l-0.1,0.1l0,0l0,0v0.2l-0.6,1.6l-0.2,0.6c0-0.1-0.1-0.2-0.1-0.3c0-0.2,0-0.2,0-0.2s0,0,0,0.1c0-0.1-0.1-0.1-0.1-0.1
			v0.2c-0.6,1.6-4.5,13,0.1,27.8c0.9,3,1.5,5.9,1.8,8.5h7.8c-1-1.8-2.1-3.4-3.1-4.9l4.4,3.4c0,0,0-0.2,0.1-0.4c0,0,0-0.1,0.1-0.1
			c0.8-1.7,4.3-6.1,17.5,2.1h8.7l0,0c-1.8-1-7.1-3.5-12.9-6.6c-4.2-2.2-8.6-4.7-12.1-7c0,0,0,0-0.1,0l0,0c-1.1-0.8-2.2-1.5-3-2.2
			c-1.2-0.9-2.1-1.8-2.7-2.6L196,200l0,0v-0.2l-0.3-1l0,0l-3.9-13.8c0.8-0.2,1.7-0.4,2.7-0.7c2.1-0.6,4.5-1.3,6.8-2.1
			c3.6-1.2,6.7-2.6,7.5-3.7c0.6-0.9,2.5-1.3,4.8-1.3c4.3-0.1,10.2,0.8,12.4,1.2l0,0c0.5,0.1,0.8,0.2,0.8,0.2l9-2l0.6-1.9l0,0
			l1.5-4.8l0,0l1.7-5.5c1.6,0.3,3.1-0.2,3.8-2.6l0,0c0.3-1,0.5-2.4,0.5-4.2c0-15-14-19-14-19l-2-1l-1,1.1l0,0l-3.5,3.8
			c-0.8-1-2.5-1.9-4.5-2.8c-2.2-1-4.8-2.1-7-3.5c-0.3-0.2-0.5-0.3-0.8-0.5c-2.6-1.8-4.6-4.1-4.9-7.3l0,0c0-0.5-0.1-1.1,0-1.7l0,0
			c0.1-1,0.3-2,0.7-3.1c0.1-0.2,0.2-0.4,0.2-0.7l2.5-0.8l4.6-1.4l0,0l0,0l0.6-0.2l1,0.4l0,0l3.4,1.4c0.2,0.4,0.6,0.8,1.3,1.2
			c4.5,2.4,6.5,9.8,7.1,10.3c0.1,0.1,0.1,0,0.2-0.2l0,0l0,0l0,0c0-0.2,0-0.5,0-1c0-3.7,3.8-4.7,9.1-5.7c0.1,0,0.2,0,0.3-0.1
			c1.4-0.2,2.8-0.5,4.4-0.9l0,0c0.4-0.1,0.9-0.2,1.3-0.3c8-2,3-15,3-15l-1,0.6l-4,2.4l-1.3,1.1l-5.1,4.5l-1.5,1.3l-0.1,0.1l-0.3-0.2
			l-7.8-6.1l-0.9-0.7l2.4-4.8l0.1-0.2l0.5-1l4.7-2c1.4,0.2,3,0.5,4.7,0.8l0,0c2.2,0.3,4.5,0.7,6.9,1c0.5,0.1,1.1,0.1,1.6,0.2
			c7.3,0.8,10.6-5.6,11.7-8c0.1-0.4,0.2-0.8,0.3-0.9c1.7-0.2,3.9-0.5,6.7-0.9c0.3,0.1,0.5,0.1,0.8,0.2c1.2,0.2,2.6,0.3,4.2,0.3
			c-0.1-0.4-0.3-0.7-0.4-1c8.4-0.3,12.7,3.2,14.9,6.3c2.4,4.3,4.4,10.4,1.8,17.1c-2.9,7.6-8,9.8-11,12.4c-1,5.1,0.6,8.2,3,14.6
			c1.8,5,1.4,10.3,0.3,14.7c-4.5-13-19.9-20.7-25.3-20.7c-8,0-1,11,4,18c1.5,2.2,2.1,5.1,2.1,8.2l0,0c-0.1,5.2-2,10.7-4.1,13.4
			c-0.6,0.8-1.3,1.3-2,1.5c-1,0.3-1.9-0.6-2.8-1.9c-2.5-4.1-4.2-13.1-4.2-13.1l-5,21l6,6l3.6,5.2c-0.4-0.1-0.6-0.2-0.6-0.2
			s0.4,0.7,1,1.9c1.9,3.9,5.5,13,0,16.1c-0.2,0.1-0.5,0.3-0.7,0.4c0,0,0,0-0.1,0l0,0l-0.1,0.1l0,0c-1.5,0.8-3.3,1.3-5.1,1.8
			c-0.6,0.1-1.2,0.3-1.8,0.4h59V32.6L278.6,24.3z M189.8,188.9c0-1.3-0.1-2.5-0.1-3.4h0.1l0.1,2L189.8,188.9z M279.7,168.5l3.6-0.9
			l0.4-0.1l1,1l-1,3h-3l-3-2h-1L279.7,168.5z M265.7,208.5c-0.6,2.5-2.4,4.3-4.7,6.1c-0.8,0.7-1.8,1.3-2.7,1.9
			c-0.1,0.1-0.3,0.2-0.4,0.3c0-1.7-0.1-3.2-0.3-4.6c-0.1-0.5-0.2-1-0.3-1.5l0,0c-0.3-1.3-0.6-2.5-1.1-3.6c2.1-1.2,6.7-5.6,16-20.6
			c0.4-0.7,0.9-1.4,1.3-2.1c2-3.2,3.2-6.2,3.9-9.1c1.5,2.7,2.5,7.1,1.1,14.1c-0.5,2.5-1.1,4.5-1.8,6.1c-0.1,0.1-0.1,0.3-0.2,0.4
			C273,203.4,267.4,201.9,265.7,208.5z M280.7,217.5h-1l-2-2l-1-1l0.4-0.9l0,0l0.6-1.1l2.7,1.8l0.3,0.2V217.5z M292.7,200.5h-2
			l-10-5l0.1-0.1l3.9-4.9v-2l1-1l2.7,2l0,0l1.3,1l0.5,1.3l0,0l2.5,6.6V200.5z M255.7,96.3c0.8-0.2,1.8-0.5,3-0.8
			c0.9-0.3,1.7-0.5,2.5-0.8C259.3,95.2,257.4,95.8,255.7,96.3z M254.3,96.7h0.1c0.3-0.1,0.7-0.2,1.1-0.3
			C255.1,96.4,254.7,96.6,254.3,96.7z M251.6,97.5c0.3-0.1,1-0.2,1.9-0.5c0.1,0,0.1-0.1,0.2-0.1C252.6,97.2,251.9,97.4,251.6,97.5z"
			/>
	</g>
	<polygon class="st0" points="250.7,214.5 249.2,217.5 249.1,217.8 249,217.8 248,220 241,220 238.5,204.2 238.5,204.2 237.7,199.5 
		238,197.6 238,197.6 238.3,195.7 238.7,192.5 246.1,197.7 248.7,199.5 248.9,200.5 248.9,200.5 249.1,202.2 	"/>
	<path class="st0" d="M173.5,90.4c0,0-6,3.7-7.9,11.5S154.7,126,154.7,126l3.5,7l2.3-9.7l11.9-19.8L173.5,90.4z"/>
	<path class="st0" d="M100.5,220.2c0.1-0.1,23.5-15.7,25.8-17.3c15.5-11.1,12.9-31.7,13.1-34.2l0-0.1c0-0.1,0-0.1,0-0.2
		c0.2-1.2,0.4-2.5,0.6-3.7c0.1-0.3,0.1-0.5,0.1-0.8c0.1-0.5,0.1-1,0.3-1.5c0-0.1,0-0.1,0-0.2c0.1-0.5,0.1-0.7,0.1-0.7
		c0.6-4.2,1.1-8.1,1.9-9.8c2.1-4.6,2.4-5.6,6.5-9.8c4.1-4.2,3.2-17.7,3.2-17.7l1.2-0.7l4.3,10.6l0.9,2l2,24.5l3.3,13.8l6.4,29.4
		c0,0,0.8,16.2,0.8,16.3h-14.1L100.5,220.2z"/>
	<path class="st0" d="M143.2,160.5c0,0.4,0.1,0.9,0.1,1.5C143.3,161.4,143.2,160.9,143.2,160.5z"/>
	<path class="st0" d="M139.7,193.5L139.7,193.5z"/>
</g>
<path class="st0" d="M300.9,30.2c0,0,17,5.6,29.6,20.8s30.9,40.9,31,74.9s-6.6,55.4-10.6,64.4s-19.7,29.8-19.7,29.8l-30.2,0.3
	L300.9,30.2z"/>
<g id="Layer_3_1_">
	<path class="st1" d="M156.9,130.4c0.4-25.1,8.8-43.9,8.8-43.9s5.1-11.8,12-19.8c4.7-7.2,7.1-10.5,13.9-16.7
		c7.8-7,15.7-12.2,23.1-16.1c3.6-1.9,7.1-3.5,10.4-4.8c0.2-0.1,0.4-0.2,0.6-0.3c0,0,0,0,0.1,0c3.3-1.3,6.5-2.3,9.4-3.1
		c2.4-0.7,4.7-1.2,6.7-1.6c7.5-1.5,12.2-1.5,12.2-1.5c0.5,0,1.1,0,1.6,0h0.1c7.6-0.2,14.3,0.1,20.3,0.8c0.3,0,0.6,0.1,0.8,0.1
		c6.3,0.8,11.8,2,16.9,3.8c2.5,0.8,4.8,1.8,7.1,2.9c0,0,60.6,24.1,60.6,100.2c0,61.6-28.5,90.1-28.5,90.1"/>
	<path class="st1" d="M155.2,126"/>
	<path class="st1" d="M157.1,144"/>
	<path class="st1" d="M174.4,220c-0.5-1.4-1-2.8-1.4-4.3c-0.2-0.6-0.3-1.3-0.5-1.9c0-0.1-0.1-0.2-0.1-0.3c0-0.2-0.1-0.4-0.2-0.6l0,0
		c-0.2-0.8-0.4-1.7-0.5-2.5c-0.5-2.8-1-5.6-1.6-8.3c0,0,0,0,0-0.1c-3.5-17.4-7.8-32.5-10.8-46.6c-0.8-3.9-1.6-7.7-2.2-11.4"/>
	<path class="st2" d="M219.2,146c0,0,9.5-4.5,8.5-13.5c-0.8-7-9.3-12.6-15-12c-4.9,0.6-7,7-7,7"/>
	<path class="st3" d="M192,132.6c0,0-4.8-3.7-1.5,4.9l1.7,3.2C191.8,138.8,191.4,132,192,132.6z"/>
	<path class="st3" d="M214.3,141.3c2.6,1.4,8.5-1.1,0.5-8.1c-1.7-1.5-2.7-0.6-3.5,1.3c-1,2.4,0.2,5.1,2.6,6.3
		c0.3,0.1,0.5,0.3,0.8,0.5"/>
	<path class="st4" d="M224.8,107.6c-0.8,3,2.9,6.4,5.8,3.1c2.9-3.3,13.9,2.1,13.9,2.1C246.2,115.8,228,95.6,224.8,107.6z"/>
	<path class="st2" d="M177.7,106.5c0,0,9-1,20,9"/>
	<path class="st5" d="M186.3,80.4c0,0,1.3,8.2,10.6,8.4"/>
	<path class="st6" d="M210.7,92.5c0,0,13,20,43.4-11.3"/>
	<path class="st3" d="M194.7,163.5c0,0,6.2-7.6,12-5s9-2,9-2s6.6-3.7,13-3c1.9,0.2,5.2,0.8,9,3c7.8,4.6,8,9,5,19l-3.9,13.7
		c1.1-0.9,3.8-32.9-14.1-24.7c-7.5,3.4-20,2-20,2s-16.9,20.4-20.8,19l4-9.6C187.9,175.9,191.1,169.2,194.7,163.5z"/>
	<path class="st2" d="M184.5,170.5"/>
	<path class="st1" d="M196.7,86.5c0,0-1,3,4,11c3.2,5.2-0.7,15.4-6,21c0,0-14.3,1.4-9,18c1.6,4.9,4.6,6.5,4.6,6.5
		s-14.4,22.6-8.6,44.3"/>
	<path class="st2" d="M250.7,152.5c0,0,18,26,5.1,47.5"/>
	<path class="st1" d="M246.4,220c1-0.6,1.8-1.3,2.5-2.1l0,0c0.1-0.1,0.2-0.2,0.3-0.4c2.9-3.8,2.9-9.4-0.1-15.3
		c-0.8-1.5-1.8-3.1-3-4.6c-1.9-2.5-4.4-4.9-7.4-7.2"/>
	<path class="st1" d="M190.7,181.5L190.7,181.5L190.7,181.5c0,0.3,0.1,1,0.2,2c0.4,3,1.5,9,4.7,15.1l0,0c0.2,0.4,0.5,0.9,0.7,1.4
		c0.2,0.4,0.4,0.7,0.7,1.1c0.6,1,1.3,2.1,2.1,3.1c1,1.3,2.2,2.6,3.5,3.9c1.8,1.7,3.9,3.2,6.2,4.6c0.6,0.3,1.2,0.7,1.9,1
		c1.4,0.8,2.8,1.5,4.2,2.2c3.9,1.9,7.4,3.3,10.6,4.4"/>
	<path class="st1" d="M192.5,199.5"/>
	<path class="st1" d="M197.4,181.9"/>
	<line class="st7" x1="191.3" y1="172.2" x2="192.5" y2="180.4"/>
	<path class="st1" d="M181.7,187.5c0,0,0.2,16.3,6,32.5"/>
	<path class="st1" d="M246.8,170.9c0,0,5.7,7.2-1.1,23.6"/>
	<path class="st8" d="M194.7,117.5c0,0-2,4-2,8"/>
	<path class="st1" d="M190.7,95.5c0,0,8,1,10,7"/>
	<path class="st1" d="M165.7,103.5c0,0-6,17,3,30s-2,19,3,43"/>
	<path class="st1" d="M248.7,200.5c0,0,0.1,0,0.1,0.1l0,0c0.2,0.1,0.5,0.3,0.9,0.7c1.9,1.4,5.8,4.8,7.6,9.4l0,0
		c0.2,0.6,0.4,1.1,0.6,1.7c0.3,1.3,0.5,2.7,0.4,4.1c-0.1,1.1-0.3,2.3-0.8,3.5"/>
	<path class="st1" d="M202.8,220c-0.6-0.6-1.3-1.3-1.9-1.9c-0.2-0.2-0.3-0.3-0.4-0.5c-2.1-2.4-4.1-5.1-5.8-8.1"/>
	<path class="st1" d="M221.7,100.5c0,0-7,1-9,6"/>
	<path class="st9" d="M223.7,113.5c0,0,5,8,14,7"/>
	<path class="st9" d="M203.7,140.5c0,0-3,7,1,9"/>
	<path class="st1" d="M189.3,183.2c0,0,33.4,7.3,48.4-3.7"/>
	<path class="st1" d="M201.9,169.8c0,0-2.3,26.7,0.7,38.2"/>
	<path class="st1" d="M213.7,169.5c0,0-1.5,39.4,1.2,46.2"/>
	<path class="st1" d="M226.7,166.5c0,0-3.9,41.9,0.8,53.5"/>
	<line class="st1" x1="235.7" y1="166.4" x2="239.6" y2="220"/>
	<path class="st10" d="M225.1,220c-5.8-1.3-11.9-3.5-16.2-7.4c0,0,0,0-0.1,0c-2.7-2.4-4.9-4.5-6.6-6.1c0,0-0.1,0-0.1-0.1l0,0
		c-2.6-2.5-4.2-4.2-5.2-5.3c-0.5-0.6-0.9-1-1-1.2l0,0c-0.1-0.2-0.2-0.3-0.2-0.3s0.1,0.1,0.2,0.1c0.1,0.1,0.3,0.2,0.5,0.3
		c1.3,0.9,4.4,2.7,4.4-0.4c0,0,0.3,0.3,0.7,0.8c2.2,2.2,8.8,7.9,11.3,1.3c0,0,0.3,0.3,0.7,0.8c2.1,2.2,8.1,7.3,11.8-0.8l0,0
		c0.5,0.1,11.9,2.8,12.5-7c0,0,0,0,0.1,0.1c0.1,0.2,0.3,0.6,0.5,1.1c0.9,2.2,2.7,6.8,3.5,9.7c0.9,3.7,6,6.7,2.1,14.2
		c-0.1,0.1-0.1,0.3-0.2,0.4"/>
	<path class="st1" d="M224.7,140.5c0,0,2-14,18-15s21,6,29-2"/>
	<path class="st1" d="M59.1,220c0,0,6-1,11.9-4.2c14.9-7.3,33.3-21.7,35.2-23.7c1.1-1.3,2.3-2.5,3.2-4c1.6-2.3,2.7-4.8,3.3-7.4
		c1.2-5,3.7-10.2,6.5-15c0.7-1.2,1.4-2.3,2.2-3.5c0.8-1.2,1.6-2.5,2.4-3.6l0-0.1c3.9-5.6,7.5-10,8.2-11.2c2.6-3.8,3.2-2.5,6.2-10.4
		l0-0.1c0.7-1.9,1.5-4.3,2.6-7.4c0.3-0.8,0.5-1.6,0.8-2.5l0,0c0-0.2,0.1-0.4,0.1-0.6c0.3-0.9,0.6-1.7,0.9-2.4c2.2-5,4.9-5.6,7.5-4
		c1.7,1.1,3.3,3.3,4.6,5.6c0.5,0.9,0.9,1.8,1.3,2.8c0.2,0.7,0.5,1.4,0.6,2l0,0c0.3,1.2,0.6,2.4,0.8,3.7c1.1,8.4-2.4,16.6-5.5,22
		c-2.2,3.9-4.2,6.4-4.2,6.4"/>
	<path class="st1" d="M148,162.4c0,0,9.8,10.6,4.9,31c-3.7,15.3-11.4,25.6-15,29.8"/>
	<path class="st1" d="M124.3,171.1c6.7-10.7,15.6-38.1,15.6-38.1"/>
	<path class="st1" d="M204.7,71.5c0,0,5,11,16,9"/>
	<path class="st11" d="M276.7,169.5c0,0,7-4,7-1S282.7,173.5,276.7,169.5z"/>
	<path class="st11" d="M283.7,190.5c1.2-6,4-2,7,2s3,11-2,7s-10-5-12-4S282.7,195.5,283.7,190.5z"/>
	<path class="st11" d="M276.7,211.5c0,0,5,2,4,5S277.7,217.5,276.7,211.5z"/>
</g>
<path class="st3" d="M200.1,106.5c0,0,1-3.8-7.9-5.3S194.5,108,200.1,106.5z"/>
<path class="st1" d="M171.7,210.4c0,0,1.9,7.6-3.6,10.1"/>
<path class="st1" d="M163.2,172.2c0,0,0.6,18.9-3.2,22.5"/>
<path class="st1" d="M297.4,125.2c0,0,9.8,26.8-4.1,44.6c-13.9,17.8-17.9,30-17.9,30"/>
<path class="st4" d="M85,211.5"/>
<path class="st1" d="M121.5,162.2c0,0-13.8-8.8-24.5-9.7c0,0,23.1-9.6,23.3-26.5c0.2-17-17.8-24.9-17.8-24.9s22.2,2.9,26.1-8.1
	c0,0,4.1-18.3-7.3-31c0,0,17.1,9.5,21.9-5S141,20.8,141,20.8s15.5,20.8,29.9,21.8s18.6-9.8,20.7-14.8c0,0,1.5,13.8,3.1,14.5
	s9.9-0.3,16-6.1"/>
<path class="st1" d="M119.9,129.6c0,0-6.5-3.7-30.2-8.1c-48-9-70-10.5-70-10.5"/>
<path class="st1" d="M132.1,174.3c0,0-10.6-12.1-45.7-21.8"/>
<path class="st1" d="M110.6,186.4c-13.6-6.9-19-10.1-38-14.2"/>
<path class="st1" d="M102,200.9c-1.3,0.1-10.1-5.2-23.2-8.4"/>
<path class="st1" d="M77.4,149.7c0,0-8.7-2.8-27.8-3.7"/>
<path class="st1" d="M77.4,212.5c0,0-6.4-4.5-13.9-4.5"/>
<path class="st1" d="M288.1,27.8c0,0,11.1-13.8-34-20.8"/>
<path class="st1" d="M278.8,30.2c0,0,13.6-11.2-34.6-19.2"/>
<path class="st1" d="M301,32.6c0,0,5.1-13.6-16.4-25.6"/>
</svg>
