<?xml version="1.0" encoding="utf-8"?>
<!-- Generator: Adobe Illustrator 21.0.0, SVG Export Plug-In . SVG Version: 6.00 Build 0)  -->
<svg version="1.1" xmlns="http://www.w3.org/2000/svg" xmlns:xlink="http://www.w3.org/1999/xlink" x="0px" y="0px"
	 viewBox="0 0 380 239.5" style="enable-background:new 0 0 380 239.5;" xml:space="preserve">
<style type="text/css">
	.st0{fill:#FFFFFF;}
	.st1{fill:none;stroke:#242424;stroke-width:4;stroke-linecap:round;stroke-miterlimit:10;}
	.st2{fill:#E6E6E6;}
	.st3{fill:#FFFFFF;stroke:#242424;stroke-width:4;stroke-linecap:round;stroke-miterlimit:10;}
	.st4{fill:#FFFFFF;stroke:#242424;stroke-width:4;stroke-linecap:round;stroke-linejoin:round;stroke-miterlimit:10;}
	.st5{fill:#242424;stroke:#242424;stroke-width:4;stroke-linecap:round;stroke-miterlimit:10;}
	.st6{fill:none;stroke:#242424;stroke-width:4;stroke-linecap:round;stroke-linejoin:round;stroke-miterlimit:10;}
	.st7{fill:#FFFFFF;stroke:#242424;stroke-width:8;stroke-linecap:round;stroke-miterlimit:10;}
	.st8{fill:#242424;stroke:#242424;stroke-width:4;stroke-linecap:round;stroke-linejoin:round;stroke-miterlimit:10;}
</style>
<g id="Layer_8">
	<polygon class="st0" points="266.7,233.7 306.8,206.5 333.1,197.5 339.3,198.9 348.5,216.3 331.6,229.7 317.6,233.9 	"/>
	<path class="st0" d="M228.7,212.4l8.1,11.8l5.4,4.5l-4.6,8.1l-8.9,3.5l-16.8-0.1l-3-6.4l7.6-12.8c0,0,6.7-5.4,7.2-5.7
		C224.2,215,228.7,212.4,228.7,212.4z"/>
	<path class="st1" d="M285.2,23.7c0,0-8.9-12-31.9-11s-12,1.3-12,1.3"/>
	<path class="st1" d="M301.9,22.5c0,0-28.9-16.1-50.9-4.3"/>
	<path class="st2" d="M337.7,20.2c0,0,23.2,4.8,45.8,32.2c22.6,27.3,23.6,53.7,23.6,53.7s6.8,64.8-15.7,93.2s-33.8,36.9-33.8,36.9
		l-11.4,3.4l-1-84.6l1.5-85.4L331,20.2H337.7"/>
	<path class="st1" d="M354.6,240.3"/>
	<path class="st2" d="M382.5,213l-32.9,27.1l77,0.2C426.6,240.3,408.1,211.2,382.5,213z"/>
	<path class="st2" d="M232.7,217.1c0,0,15.7,16.7-10.3,23l45.8,0.1L232.7,217.1"/>
	<g id="Layer_4_2_">
		<g>
			<path class="st2" d="M284.6,144.1c0,0,0.7,0.8,2,2.1C286.1,145.2,285.4,144.5,284.6,144.1z"/>
			<path class="st2" d="M348.5,25.5c-1.1-1.1-2-1.9-2.8-2.4c-2.2-1.3-4.9-2.2-8-2.9H331h-0.1h-10.5h-23.3c0.1,0,0.2,0,0.3,0l0,0
				c22.8,3,29.8,41.7,20.2,62.8c-4.4,9.7-10.7,13-16.4,13.6c-4.6,0.5-8.8-0.7-11.3-1.6l4.9,2.2h0.1l10.7,4.8c4,20-9,8-9,8
				s0,0.5,0,1.4c0.1,2.7,0.3,8.5,1.5,10.9c0.1,0.3,0.3,0.5,0.5,0.7c1.3,1.3-0.8,4.4-2.4,6.3c-0.2,0.3-0.5,0.5-0.7,0.8l-4.1,0.8l0,0
				l-0.8,0.1l-4-1c0,0,3,8,7,7c3.9-1,17-2.9,13.4-12c4.5,0.1,41.1,1.6,18.6,27c-14.1,15.9-32.9,0.1-39-5.9c0.7,1.3,1.3,3.1,2.1,5.1
				l-1.6,2.2l-2.5,3.6l-2.6,2.7l-0.4,0.3h-0.2l0,0h-0.1l-3.4-0.8c-0.6-0.7-1.6-1.7-2.8-2.4l0,0c-1.3-0.8-2.8-1.3-4.3-0.7
				c0.1,0.2,0.2,0.5,0.4,0.7c0.3,0.4,0.7,0.8,1.2,1.1l-3.1-0.7c0.1-0.1,0.2-0.2,0.2-0.2c0.4-0.4,0.8-0.7,1.3-0.9
				c-0.2-0.4-0.3-0.8-0.3-1.3l0,0c0-0.2,0-0.5,0.1-0.7c1-5,8-10,8-10s1.8,0.5,2.7,0.4c0.3,0,0.5,0,0.5-0.2c0-0.1,0-0.2-0.2-0.3
				c-1-1-2-8-7-8c-4.1,0-5.4,8.2-7,13c-1,3-8,7-12,1c-3.4-5.1-8.9,2.3-9.8,3.8c-0.3-2.5,0.8-5.7,4.8-9.8l0,0c0,0,0.1-0.1,0.2-0.4
				c1.2-2.8,8.6-20.3,5.8-28.6c-0.1-0.3-0.2-0.5-0.3-0.8l0,0c-3-8.9-7.7-20.2-7.7-20.2l-1.9,0.5l-9.1,2.5c0,0,0.2,0.2,0.6,0.6
				c2.6,2.7,12.8,13.8,8.4,16.4c-0.1,0.1-0.3,0.2-0.4,0.2c-4.6,3-4.6,6.8-4.6,6.8s1.9,1.2,3.5,2.8c2.2,2.2,3.7,5.3-1.2,7.1
				c-0.1,0-0.2,0.1-0.3,0.1c-1.1,0.3-1.5,0.7-1.5,1.1c-0.1,0.5,0.5,0.9,0.5,0.9s0.1,0.1,0.3,0.2c-2.2-0.2-4.4-1.1-6.3-3.1
				c0.5,0.8,4.7,6.8,8.9,7.8c1.4,4.4,1.4,11.8-6,23.1c-13,20-4,33-4,37s4-10,4-10s0.1-0.5,0.2-1.5l0,0c0.8-5.7,4-25.7,10.8-26.5
				c0,0,12,11,18,11c4.6,0,25.4,3.8,26.8-6.5c4.1,6.3,9.9,14.2,14.2,19.1c0.2,2.3-0.2,4.7-1.9,6.5c-2,2-10.2,2.1-19.3,1.4
				c-13.4-1-28.7-3.4-28.7-3.4h-14c0,0,0.7,0.5,1.8,1.3l0,0c4.9,3.5,18.3,12.7,23.2,12.7c6,0,15-5.9,18-5c10,3,1,11,1,11s-12,6-17,5
				c-0.3-0.1-0.7-0.1-1-0.2l0,0c-4.6-1-9.6-2.7-9.9-2.8c0.1,0.1,0.7,0.5,1.5,1.1l0,0c3,2.2,8.9,7.1,7.4,10.9c-2,5-6,9-12,7
				c-3.3-1.1-10.1-2.2-17.1-5.6c-1.6-0.8-3.2-1.6-4.7-2.6c1.1,1.5,2.1,2.8,3,4.1l0,0c2.2,3,3.8,5.1,3.8,5.1l19.5,10h86.5V26.7
				C349.2,26.3,348.8,25.8,348.5,25.5z M250.6,160c-0.2-0.1-4-1.9-4.8-5.7L250.6,160z M316.6,208.1c-2.7,0.4-5,1.2-6.8,2.2
				c-0.2-0.7-0.3-1.4-0.2-2.2c0.8-6.2,6.1-15,7-20c2.4,0,2.7-0.5,13.7-6.7C329.4,189.6,326.5,206.6,316.6,208.1z"/>
			<path class="st2" d="M289.9,95.1l-2.3-1C287.6,94.1,288.4,94.6,289.9,95.1z"/>
			<path class="st2" d="M287.6,128.1c-1-1,2-5,2-5s12.8-9.1,3-12c-10-3-3.4-11.9-5-14c-3.2-4.1-6,0-6,0
				C261.6,130.1,288.6,129.1,287.6,128.1z"/>
			<path class="st2" d="M225.6,209.1c3,5.3,7,9.1,11.2,11.8C229.5,211.2,219.6,198.5,225.6,209.1z"/>
		</g>
	</g>
	<g id="Layer_1_1_">
		<path class="st1" d="M263.7,240.3c0,0-0.1,0-0.1-0.1c-8.4-3.8-16.4-8.8-23.6-15.1l0,0c-2.7-2.4-5.3-4.9-7.7-7.7l0,0
			c-2.4-2.7-4.6-5.6-6.7-8.7c-0.2-0.4-0.5-0.7-0.7-1.1l0,0c-4.9-7.4-8.8-15-12-22.5c-0.5-1.3-1.1-2.6-1.6-3.9l0,0
			c-15.3-40.6-8.2-80.9,2.3-101.6c15.2-30,35-45,50-52.5l0,0c7.9-4,14.5-5.8,18.3-6.6l0,0"/>
		<path class="st1" d="M349.6,240.1c13-4.1,58-34.9,59-111.7S349.7,24.6,349.7,24.6c-3.7-1.9-7.5-3.3-11.4-4.4h-0.1"/>
		<path class="st3" d="M236.8,172.7c0,0,2.3,19.8,13.1,32.4c19.4,16.9,39.8,2,39.8,2s15.4-17.4,16-35.2"/>
		<path class="st1" d="M250.6,160.1c0,0-3.9-0.7-4.9-5.8s4.9-10.2,4.9-10.2s11-26,3-38"/>
		<path class="st3" d="M281.3,160.1c0,0,3.6-1.5,5.8-6.5c2.2-5-5.8-9.5-5.8-9.5"/>
		<path class="st4" d="M253.9,157.3c0,0-0.5-2.6,1.6-2.1l1.6,2.1C257.1,157.3,254.9,156.7,253.9,157.3z"/>
		<path class="st4" d="M276.2,157.2c0.7,0,1.5-2.9-2.9-2.9s-5.1,2.9-5.1,2.9s5.4-1.1,8.4-0.1"/>
		<path class="st5" d="M236.8,118.8c0,0,4.7-2.2,8.1,0c3.5,2.2,3.5,4.9,0,5.5C241.5,124.9,231,124.9,236.8,118.8z"/>
		<path class="st5" d="M288.7,119.1c0,0,6.3-2.6,9.4-0.5c3.1,2,1,5.2-2.1,5.7C292.8,124.8,283.4,124.8,288.7,119.1z"/>
		<path class="st6" d="M287.5,128.5c0,0,2.3,4.9,12.1,1.3c0,0,6.8-12.9,16.8-9.4"/>
		<path class="st3" d="M237.9,129.7c0,0,2.9,4.2,8.4,1.8"/>
		<path class="st7" d="M228.6,100.1c0,0,14.5-3,22.5,0"/>
		<path class="st7" d="M279.9,84.2c0,0,18.7,6.9,24.7,15.9"/>
		<path class="st8" d="M245.3,172c0,0,8.6-3,14.5,2.4c7.3,2.4,11,0,11,0s7.5-3,14.4,0.6c2.4,1.3,8.1,1.3,8.1,1.3l19.3-9.1
			c-6.1-1.2-22.7,25.8-44.5,22.2c-10-1.6-9.9-2.1-9.9-2.1s-16.1-8.8-19.6-12.2c-1.6-1.6-2.2-4.3-2.9-6.9L245.3,172"/>
		<path class="st3" d="M243.3,187.7"/>
		<path class="st1" d="M426.6,240.3c-17.3-27.2-44.1-27.3-44.1-27.3"/>
		<path class="st1" d="M210.6,239.7c-3-19,17.6-26.7,17.6-26.7"/>
	</g>
	<path class="st1" d="M337.7,20.2c0,0-30.8-8-57.8,0"/>
	<path class="st6" d="M246.3,217.1c0,0,20.5,22.1,44.7,5.8"/>
	<line class="st6" x1="247.9" y1="178.4" x2="247.9" y2="202.4"/>
	<line class="st3" x1="259.6" y1="188.1" x2="258" y2="208.7"/>
	<line class="st3" x1="271.2" y1="189.8" x2="271.2" y2="212"/>
	<line class="st3" x1="285.6" y1="188.1" x2="282.3" y2="208.7"/>
	<line class="st3" x1="296.5" y1="178.2" x2="294.1" y2="201.4"/>
	<path class="st6" d="M239.5,184.9c0,0,24.1,20.2,60.4,7"/>
	<path class="st6" d="M239.5,161c0,0-9.2,5.2-7,22.2"/>
	<path class="st6" d="M249,188.1"/>
	<path class="st1" d="M264.6,67.7c0,0-5.3,16.9,5.1,24.4"/>
	<path class="st6" d="M287.6,148.4c0,0-1,13.3,19.8,14.3c0,0,6.3,0,10.3,15.5"/>
	<path class="st1" d="M316.3,20.2c0,0-30-6-43.3-15.5"/>
	<path class="st1" d="M209,220.9c0,0-29.6-39.4-115.9-54.2"/>
	<path class="st1" d="M163.5,222.2c-22.3-16.7-53.2-25.9-84.2-35.8"/>
	<path class="st1" d="M113.5,220.9c-1.3,0.1-15-11-28.1-14.2"/>
	<path class="st1" d="M84,164c0,0-8.7-2.8-27.8-3.7"/>
	<path class="st1" d="M84,226.7c0,0-6.4-4.5-13.9-4.5"/>
</g>
<g id="Layer_2">
	<line class="st1" x1="218.1" y1="71.4" x2="173.5" y2="71.4"/>
	<line class="st1" x1="222.3" y1="114" x2="190" y2="114"/>
	<line class="st1" x1="206.2" y1="144.1" x2="179.3" y2="144.1"/>
	<line class="st1" x1="179.3" y1="114" x2="168.5" y2="114"/>
	<line class="st1" x1="232.4" y1="203.7" x2="202.5" y2="202.4"/>
	<line class="st1" x1="238.7" y1="58" x2="218.1" y2="58"/>
	<line class="st1" x1="202.5" y1="58" x2="195.8" y2="58"/>
</g>
</svg>
