<?xml version="1.0" encoding="utf-8"?>
<!-- Generator: Adobe Illustrator 21.0.0, SVG Export Plug-In . SVG Version: 6.00 Build 0)  -->
<svg version="1.1" xmlns="http://www.w3.org/2000/svg" xmlns:xlink="http://www.w3.org/1999/xlink" x="0px" y="0px"
	 viewBox="0 0 380 220" style="enable-background:new 0 0 380 220;" xml:space="preserve">
<style type="text/css">
	.st0{fill:#FFFFFF;}
	.st1{fill:#E6E6E6;}
	.st2{fill:none;stroke:#242424;stroke-width:4;stroke-linecap:round;stroke-miterlimit:10;}
	.st3{fill:#FFFFFF;stroke:#242424;stroke-width:4;stroke-linecap:round;stroke-miterlimit:10;}
	.st4{fill:#242424;stroke:#242424;stroke-width:4;stroke-linecap:round;stroke-linejoin:round;stroke-miterlimit:10;}
	.st5{fill:#242424;stroke:#242424;stroke-width:4;stroke-linecap:round;stroke-miterlimit:10;}
	.st6{stroke:#242424;stroke-width:4;stroke-linecap:round;stroke-miterlimit:10;}
	.st7{fill:#FFFFFF;stroke:#242424;stroke-width:8;stroke-linecap:round;stroke-miterlimit:10;}
	.st8{fill:none;stroke:#242424;stroke-width:4;stroke-linecap:round;stroke-linejoin:round;stroke-miterlimit:10;}
</style>
<g id="Layer_5">
	<polygon class="st0" points="306.7,212.8 320,183.1 352,189.3 365.3,220.2 301.1,220 	"/>
	<polygon class="st0" points="64.1,220 104.3,192.8 130.5,183.8 136.7,185.1 145.9,202.6 129,216 115,220.2 	"/>
</g>
<g id="Layer_2">
	<g id="Layer_8">
		<polygon class="st0" points="301.1,50.7 301.1,220 163.1,220 158.7,216.1 158.1,215.5 148.3,206.8 145,200.9 144.5,200.1 
			143.6,198.4 131.7,177.4 131.3,176.8 131.2,176.4 120.8,135.4 120.3,133.8 120.5,132 123.3,92.8 139.3,55.8 141.6,51.9 
			143.3,48.8 162.3,29.8 185.3,14.8 218.3,7.8 257.3,7.8 260.8,9.8 261.9,10.5 279.3,20.8 281.5,23.8 281.5,23.8 283,25.9 
			287.2,31.6 		"/>
	</g>
	<g id="Layer_6">
		<g>
			<path class="st1" d="M156.3,125.8c-10,3-10,14-10,22s0,27,16,52l1-7c0,0-5-16-2-27s5-16,5-16s-5-3-7-7s0-13,0-13l9-2
				c0,0,9-15,9-20s-7-20-12-23s-19-2-19-2s0,3,6,5s10,6,10,6l3,17c0,0,2,6-4,6S166.3,122.8,156.3,125.8z"/>
			<path class="st1" d="M136.7,191.2l-0.4-0.4C136.3,190.8,136.4,191,136.7,191.2z"/>
			<path class="st1" d="M191.3,197.8c-8-3-14,2-14,2c-5.9,7.9-6.5,15-5.6,20.2h-8l-5.1-3.9l-0.4-0.3l-0.2-0.3l-1.4-1.6L144.4,200
				l-0.6-0.7l-6.5-7.4c1.1,1.2,3,3.2,5.2,5.5c0.3,0.3,0.6,0.6,1,1c8,7.9,20.1,18,22.8,9.4c3-18,10.6-16.1,15-17
				C186.3,189.8,199.3,200.8,191.3,197.8z"/>
			<path class="st1" d="M193.3,80.8l0.7,0.3c0.2-0.2,0.3-0.3,0.3-0.3H193.3z"/>
			<path class="st1" d="M187,220h-8.3c-1.1-3.7-2.8-12.1,2.6-15.2C187.3,201.4,177.9,211.9,187,220z"/>
			<path class="st1" d="M220.4,189.8L220.4,189.8C220.3,189.8,220.3,189.8,220.4,189.8z"/>
			<path class="st1" d="M194.3,140.8c0,0-0.7,0.1-1.6,0.2c0.5,0.3,0.9,0.6,1.3,0.9c0.1,0.1,0.1,0.1,0.2,0.2c0.1,0.1,0.1,0.1,0.2,0.2
				c0.1,0,0.1,0.1,0.2,0.2c0.1,0,0.1,0.1,0.1,0.1c0.1,0.1,0.2,0.2,0.2,0.3L194.3,140.8z M194.3,140.8c0,0-0.7,0.1-1.6,0.2
				c0.5,0.3,0.9,0.6,1.3,0.9c0.1,0.1,0.1,0.1,0.2,0.2c0.1,0.1,0.1,0.1,0.2,0.2c0.1,0,0.1,0.1,0.2,0.2c0.1,0,0.1,0.1,0.1,0.1
				c0.1,0.1,0.2,0.2,0.2,0.3L194.3,140.8z M194.3,140.8c0,0-0.7,0.1-1.6,0.2c0.5,0.3,0.9,0.6,1.3,0.9c0.1,0,0.1,0.1,0.2,0.2
				c0.1,0.1,0.1,0.1,0.2,0.2c0.1,0,0.1,0.1,0.2,0.2c0.1,0,0.1,0.1,0.1,0.1c0.1,0.1,0.2,0.2,0.2,0.3L194.3,140.8z M291.9,34.4
				l-0.3,0.2l-0.6,0.5l-4-3.5l-4.5-4.1l0.4-1.6l0.2-0.6l0.1-0.5l-1.7-0.9h-0.1l-15.3-8.2l-2.4-2.9l-1.8-2.2l-0.6-0.7h-0.6l-4.4,0.2
				l-2.7,0.1l-5.9,0.3l-0.1-2.4V7.8h-25.2c0.9,1.4,1.5,2.7,1.9,4c0,0,2.2,14.2,3.2,29.9c-1.1,2.2-2.4,4.2-3.8,6.1
				c-4.9,1.6-12.5,5.6-12.5,15.5c0,0.8,0,1.6,0.2,2.5c0,0,17.9-2.7,15,8.6c0,0,0,0,0,0.1c0,0.2-0.1,0.3-0.1,0.5
				c-0.5,1.9-1.1,3.6-1.9,4.9c-0.1,0-0.2,0-0.3,0c-0.2,0-0.5,0-0.7,0l0,0c-1.3-0.1-2.5,0-3.7,0.1h-0.1c-6.4,0.7-10.8,3.9-12.5,5.3
				c-0.5,0.4-0.7,0.6-0.7,0.6l-1.3-0.5l-10.4-4l-0.6-0.2c-0.5,0.5-1.7,1.9-2.9,3.6c-2.6-1.5-4.8-4.8-3.9-11.9
				c1.9-14.5-16.1,7.9-0.7,16.2c0.4,0.7,0.9,1.4,1.5,2.2c-1.1,4.5,0.1,9.5,8.2,12.6c3.8,1.5,6.3,2.4,8,3c5.6,1.9,1.3-0.3,0.3-0.9
				c-0.1-0.1-0.2-0.1-0.2-0.1l-2-4c0,0,0-1.6,0.3-3.6l0,0c0.2-1.1,0.4-2.4,0.8-3.5c0.7-2.1,1.9-3.9,3.9-3.9c0,0,8-4,13,2
				c2.5,3,2.5,7.6,1.4,11.3c1.4-0.8,3-1.9,4.4-3.2c5.8-3.7,19.1-10.9,22.2-3.2c0,17.8-17.4,33.2-25.3,39.3
				c-8-10.7-16.3-11.8-21.5-11c-0.4-2.7,0.2-5.1,2.8-6.3c0.8-0.4,1.7-0.6,2.8-0.7c18.2,13.6,18.2-7.3,18.2-7.3s-2-8-5,0
				c-1.5,4-5.4,5.2-9,5.5l0,0c-3.7,0.3-7-0.5-7-0.5c-0.1,0-0.3-0.1-0.4-0.1l0,0c-4.9-1.9-10.7-3.6-14.6,5.2c-4,9-2,9-7,14
				s-16-1-13-6s-10,4-4,17l1.4,0.9l0.4,0.3l18.8,12.3l5.7,3.7l-10.3,4.8c0,0-4.5,0-6.8,3c-0.7,1-1.2,2.3-1.2,4c0,0,2.9-0.3,6.9-0.8
				c3.4-0.4,7.7-1,11.7-1.6c4.2-0.7,8.2-1.5,10.4-2.3c1.1-0.4,1.9-0.8,2-1.3c0.3-1-0.5-2.3-1.8-3.5l0,0c-2.4-2.3-6.2-4.4-6.2-4.4
				l0.2-0.5c1.7-0.2,3.4-0.6,4.8-1.5c0.3-0.2,0.6-0.4,0.9-0.7c0.6-0.5,1.1-1.1,1.4-1.8l1.2,3.2l0.5,1.3c0,0,0.5,0,1.3-0.2
				c4-0.7,15.8-4.5,6.7-23.8c3.5,3.7,8.8,9.7,13.3,16.5c1,2,2,3.8,3,5.6c1.9,5.2,3.9,11.5,5.7,17.3c0,8.4-0.8,28.5-8,20.5v-7
				c0,0,0.8-14-0.5-19.6c0-0.1,0-0.2-0.1-0.2c-0.1-0.5-0.3-0.9-0.4-1.2c0,0-7-3-6,9c0.5,6.1,0.5,8.8,0.4,10c-0.1,0.7-0.2,0.9-0.3,1
				l3.9,0.6c-0.2,1.4-1.1,5.1-6,3.4c-6-2-2,5,2,6s9,8,8,13l0,0l0.7,1l0,0l3.3,5l-1.6-1.7l0,0l-12.2-13.1l0,0l-0.1-0.1
				c0,0,0,0.1,0.1,0.1l0,0c1,1.5,7.4,11.9-2.9,16.1h85.5v-173C298.2,42.5,295.1,38.2,291.9,34.4z M206.4,129.8
				c-0.1,0-0.1,0.4-0.1,1.2c-0.3-0.5-0.6-1-1-1.4L206.4,129.8z M193.3,131.8c0.1-0.1,0.2-0.2,0.3-0.2c1.1-0.9,2.1-1.6,3.1-2.1l0,0
				c0.7-0.4,1.4-0.7,2-1l3.6,0.6c0.2,0.5,0.4,1,0.6,1.4c0.8,2,1.9,3.9,2.8,5.5c-0.3,2.1-0.7,4.7-1.4,7.8l-8,2l-0.3-0.1h-0.3l-0.3-1
				l0,0l-0.5-1.9l-0.6-2c0,0-0.7,0.1-1.6,0.2c-1.2,0.1-3,0.2-4.2-0.1C186.1,140.3,185.5,138.1,193.3,131.8z M239.3,199.8
				c-0.3-0.9-0.5-1.8-0.8-2.7c-0.1-0.3-0.2-0.7-0.3-1c0.2-2.3,0.4-4.9,0.5-7.6c0.4,1.3,0.8,2.5,1,3.4c0.4,1.2,0.6,1.9,0.6,1.9
				s0.3-6.9-1.6-17.4c0.9,1.7,1.7,3.5,2.6,5.4c3.5,7.8,4.1,15.1,4.1,18.7C243.5,204.1,241.2,205.8,239.3,199.8z M194.3,140.8
				c0,0-0.7,0.1-1.6,0.2c0.5,0.3,0.9,0.6,1.3,0.9c0.1,0.1,0.1,0.1,0.2,0.2c0.1,0.1,0.1,0.1,0.2,0.2c0.1,0,0.1,0.1,0.2,0.2
				c0.1,0,0.1,0.1,0.1,0.1c0.1,0.1,0.2,0.2,0.2,0.3L194.3,140.8z M194.3,140.8c0,0-0.7,0.1-1.6,0.2c0.5,0.3,0.9,0.6,1.3,0.9
				c0.1,0.1,0.1,0.1,0.2,0.2c0.1,0.1,0.1,0.1,0.2,0.2c0.1,0,0.1,0.1,0.2,0.2c0.1,0,0.1,0.1,0.1,0.1c0.1,0.1,0.2,0.2,0.2,0.3
				L194.3,140.8z"/>
		</g>
	</g>
	<path class="st1" d="M143.7,199.3c0,0-26.8,1-35.3,20.7h54.7L143.7,199.3z"/>
	<g id="Layer_4">
		<path class="st1" d="M331,209.6c-14.5-5-13.4-24.4-19-22.5c-1.3,0.4,4.3-9.7,1.9-6.2c1.1-3.4,2.2-7.2,3.3-11.3
			c9.2-34.8,6.6-42.2,4.4-69.9s-20.5-52.6-20.5-52.6l-29.8-28.7l-2.8,18l14,173.1l13.8,2.2c-1.3,2.6-2.2,4.2-2.2,4.2l1.9,3.9
			l19.2,0.2c0,0-20.6-0.3-6.8-10.7c9.3,1,12.2,10.7,38.8,10.5l0,0C347.3,220,345.5,214.7,331,209.6z"/>
		<path class="st2" d="M199.9,10.1c0,0-20.6,4.6,9.7,18.1c0,0,8.6,3,13.5,2.5"/>
		<path class="st2" d="M213,7.8c0,0-0.8-3.8-6.3-4.5S193.2,2.7,190,9s-3.8,13.8,5.2,22.7"/>
		<path class="st2" d="M222.4,7.8c0,0-18.7,0.5,6.9,12.7c17.3,7.9,21.7,5.9,21.7,5.9"/>
		<line class="st2" x1="316.1" y1="197.8" x2="338.3" y2="189.3"/>
		<line class="st2" x1="307.9" y1="163.5" x2="334.3" y2="155.8"/>
		<line class="st2" x1="323.8" y1="141.2" x2="341.3" y2="135.3"/>
		<line class="st2" x1="326.9" y1="207.2" x2="356.5" y2="194.2"/>
		<line class="st2" x1="265.8" y1="40.5" x2="329.8" y2="20.5"/>
		<line class="st2" x1="292" y1="50" x2="314.5" y2="42"/>
		<line class="st2" x1="270.7" y1="22.3" x2="287.5" y2="18.5"/>
		<line class="st2" x1="297.8" y1="15" x2="307.9" y2="13"/>
		<path class="st2" d="M8.5,153c0,0,30.8-13.5,61.5-7.7"/>
		<path class="st2" d="M28,180.8c0,0,16-8,28-8"/>
		<path class="st2" d="M0,124.5c0,0,21.5-4.5,31.5-4.3"/>
		<path class="st2" d="M82,172.8c0,0,4.5-0.2,8,0"/>
	</g>
	<g id="Layer_2_1_">
		<path class="st2" d="M290.4,220c3.7-3.6,7.3-7.8,10.7-12.3c51.1-92.3,0-160.5,0-160.5c-3-4.7-6-8.9-9.2-12.7
			c-0.6-0.7-1.2-1.4-1.8-2.1c-2.3-2.6-4.6-4.9-6.9-7c-0.5-0.5-1-0.9-1.6-1.4c-0.1,0-0.1-0.1-0.1-0.1c-0.4-0.3-0.8-0.6-1.2-1
			c-5.4-4.3-10.8-7.7-16.6-10.1c-2.4-1-4.9-1.9-7.4-2.6c-2.8-0.8-5.7-1.5-8.7-1.9c-0.8-0.1-1.5-0.2-2.3-0.3
			c-11.9-1.5-25.6-0.7-42.3,1.6c0,0-31.2,3.1-57.8,37.5c-1.2,1.6-2.5,3.3-3.7,5c-3.5,4.9-7,10.7-10.3,17.1
			c-7.1,14-12.6,36.9-10.8,62.8c0.1,1.1,0.2,2.3,0.3,3.4c1.3,13.2,4.5,27.1,10.5,41c0.1,0.3,0.3,0.7,0.4,1c3,6.7,6.6,13.4,10.9,20
			c0.2,0.3,0.4,0.7,0.6,1c0.2,0.3,0.4,0.6,0.6,0.9c0.4,0.5,0.7,1.1,1.1,1.6c3.5,4.9,7.5,9.2,11.7,13.1c2.4,2.2,4.9,4.2,7.4,6"/>
		<path class="st3" d="M196.3,147.8c0,0,7-1,8.6-4.5c7.4-17.1-11.6-13.5-11.6-13.5"/>
		<path class="st4" d="M166.3,142.8c0,0-1-6,5,1l2,3C171.8,145.6,166.1,142,166.3,142.8z"/>
		<path class="st4" d="M193.9,146.9c0.7,0,3.8-3.4-1.6-6.1c-4.4-2.1-7,3.8-7,5c0,0,6,0,9,1"/>
		<path class="st5" d="M155.3,97.8c0,0,5-1,8,3s3,9,0,10S145.3,101.8,155.3,97.8z"/>
		<path class="st5" d="M206.3,102.8c0,0,8-6,11-2s0,9-3,10S199.3,112.8,206.3,102.8z"/>
		<path class="st6" d="M201.3,113.8c0,0,6.2,9.2,16,5.6"/>
		<path class="st3" d="M153.3,115.8c0,0,7,5,13,0"/>
		<path class="st7" d="M146.3,82.8c0,0,10-6,20,2"/>
		<path class="st7" d="M194.3,80.8c0,0,5,11,30-1"/>
		<path class="st4" d="M168.3,165.8c0,0,4-6,10-4s7,1,7,1s0.6-7,7-7c1.9,0,5.8,1.5,9.8,3.3c8.2,3.7,14.1,11.2,15.9,20l2.2,9.7
			c1-1-11-31-28-21c-7.1,4.2-19,4-19,4s-4,20-8,19l3-10C168.3,180.8,165.3,171.8,168.3,165.8z"/>
		<path class="st3" d="M164.3,175.8"/>
		<path class="st3" d="M201.3,99.8c0,0,1-7,6-7"/>
		<path class="st3" d="M169.3,103.8c0,0,0-10-7-10"/>
		<path class="st2" d="M166.3,87.8c0,0,23,13,2,40c0,0-16-1-9,15c2.1,4.7,8,5,8,5s-12,24-4,45"/>
		<path class="st3" d="M238.3,180.8c0,0,4,6,0,17"/>
		<path class="st2" d="M225.3,189.8c-47-11-53-4-53-4c-11,6-9,19-9,19"/>
		<path class="st2" d="M216.3,178.8c-16.8,0-43,6-43,6"/>
		<path class="st2" d="M175.3,203.8"/>
		<path class="st2" d="M178.3,185.8"/>
		<line class="st2" x1="179.3" y1="172.8" x2="183.4" y2="183.1"/>
		<line class="st2" x1="190.4" y1="169.7" x2="196.3" y2="184.7"/>
		<line class="st2" x1="199.9" y1="165.8" x2="209.3" y2="186.5"/>
		<line class="st8" x1="171.3" y1="176.8" x2="173.3" y2="184.8"/>
		<path class="st2" d="M171.1,220c-3.3-12.4,4.3-20.2,4.3-20.2"/>
		<path class="st2" d="M218.3,203.8c0,0,11,5,14,18"/>
		<path class="st2" d="M226.3,169.8c0,0,5,11,0,28"/>
	</g>
	<g id="Layer_3">
		<path class="st2" d="M136.1,186.5c0,0-10.6-10.4-57.1,25.6c0,0-1.9,1.9-14.9,7.9"/>
	</g>
	<path class="st2" d="M312,187.2c0,0-1.5,11.3,19,22.5c19.9,10.8,16.3,10.4,16.3,10.4"/>
</g>
</svg>
