<?xml version="1.0" encoding="utf-8"?>
<!-- Generator: Adobe Illustrator 21.0.0, SVG Export Plug-In . SVG Version: 6.00 Build 0)  -->
<svg version="1.1" xmlns="http://www.w3.org/2000/svg" xmlns:xlink="http://www.w3.org/1999/xlink" x="0px" y="0px"
	 viewBox="0 0 380 239.5" style="enable-background:new 0 0 380 239.5;" xml:space="preserve">
<style type="text/css">
	.st0{fill:#E6E6E6;}
	.st1{fill:none;stroke:#E6E6E6;stroke-width:4;stroke-linecap:round;stroke-miterlimit:10;}
	.st2{fill:none;stroke:#242424;stroke-width:4;stroke-linecap:round;stroke-miterlimit:10;}
	.st3{fill:#FFFFFF;stroke:#242424;stroke-width:4;stroke-linecap:round;stroke-linejoin:round;stroke-miterlimit:10;}
	.st4{fill:#242424;stroke:#242424;stroke-width:4;stroke-linecap:round;stroke-miterlimit:10;}
	.st5{fill:#FFFFFF;stroke:#242424;stroke-width:4;stroke-linecap:round;stroke-miterlimit:10;}
	.st6{fill:#FFFFFF;stroke:#242424;stroke-width:8;stroke-linecap:round;stroke-miterlimit:10;}
	.st7{fill:#242424;stroke:#242424;stroke-width:4;stroke-linecap:round;stroke-linejoin:round;stroke-miterlimit:10;}
	.st8{fill:none;stroke:#242424;stroke-width:4;stroke-linecap:round;stroke-linejoin:round;stroke-miterlimit:10;}
</style>
<g id="Layer_2">
	<path class="st0" d="M194.1,95.6c0,0-8.9,14.9,0.2,19.5l4.2-2.8c0,0-4.3-12.9,9-16.7C207.4,95.6,196.4,90.6,194.1,95.6z"/>
	<path class="st0" d="M176.8,146.9c0,0,7.3,7.7,15,0c0,0,10.3,5.1,14-2.2c0,0,5.3,2.2,0,7.9c-5.3,5.6-9.3,2.7-9.3,2.7l-6.8,0.8
		c0,0-4.8,1.1-8.6,0c-3.8-1.1-13.4,0.5-13.4,0.5s-8.6-7.7-5.9-11.8C161.7,144.8,171.5,152.8,176.8,146.9z"/>
	<path class="st0" d="M195.3,124.8c0,0,3.7,8.5,10.4,5.5s11.9-7.5,4.1-7.8C209.8,122.5,199.4,130.8,195.3,124.8z"/>
	<path class="st0" d="M161.7,147.9c0,0,2.6,18,20.3,18.4s30.5-4.9,30.8-9.2c0.3-4.3-2.6-12-7.2-16.2c0,0,2.3,8.8-1,12.7
		C201.3,157.5,166.1,157.3,161.7,147.9z"/>
	<path class="st0" d="M151.9,146.9c0,0,5.5,10.8-1.2,17.3c-6.7,6.6-11.3,8.9-13.7,16.6c-2.3,7.7-11.4,4.8-6.6-3.6
		C135.3,168.9,152.4,152,151.9,146.9z"/>
	<path class="st0" d="M220.4,158.2c0,0,3.3,14.3,17.6,16.7c14.3,2.3,11.9,5.3,11.9,5.3l-6.9-12.9l-18.7-4.5L220.4,158.2z"/>
	<path class="st0" d="M167.5,202.1c0,0,1.2,9.8,13.2,14.4s38.1-2.8,39.2-7.2s-5-10.5-11.8-7.2c-6.8,3.3-6.3,11.2-23.4,5.6
		S167.5,202.1,167.5,202.1z"/>
	<path class="st0" d="M151.9,124.8c0,0,2.6,7.2,7.8,6.1c5.2-1.1,6-6.1,6-6.1s-4.3-1.7-7.6,0C154.8,126.5,151.9,124.8,151.9,124.8z"
		/>
	<path class="st0" d="M162.7,97.8c0,0,5,14.3,3,17.4c-2,3.1,8.6,4.9,7.6-3.6C172.3,103,162.7,97.8,162.7,97.8z"/>
	<path class="st0" d="M274,213.5c0,0,5.5,20.8-9.3,26h27.8C292.5,239.5,290.2,214.5,274,213.5z"/>
	<path class="st0" d="M92.5,229.8c0,0,15,19.5,31.9-1.5l17.1,8.6l4.3,2.1l-53.3,0.6V229.8z"/>
	<path class="st1" d="M177.7,18.9c0,0-18.4,14.1-15,28.6"/>
	<path class="st1" d="M193.1,17.1c0,0-17.4,13.3-10.8,30.4"/>
	<path class="st1" d="M200.3,18.2c-6.2,3.2-6.8,17.8,0.9,29.3"/>
</g>
<g id="Layer_8">
	<path class="st2" d="M175.6,18.9c0,0-28.6,17.1-19.2,34.1"/>
	<path class="st2" d="M189.6,18.9c0,0-26.4,6.6-13.9,34.1"/>
	<g id="Layer_1_1_">
		<path class="st2" d="M145.9,239c0,0-0.1,0-0.1-0.1c-8.4-3.8-16.4-8.8-23.6-15.1l0,0c-2.7-2.4-5.3-4.9-7.7-7.7l0,0
			c-2.4-2.7-4.6-5.6-6.7-8.7c-0.2-0.4-0.5-0.7-0.7-1.1l0,0c-4.9-7.4-8.8-15-12-22.5c-0.5-1.3-1.1-2.6-1.6-3.9l0,0
			C78.2,139.3,85.3,99,95.8,78.3c15.2-30,35-45,50-52.5l0,0c7.9-4,14.5-5.8,18.3-6.6l0,0"/>
		<path class="st2" d="M231.8,238.8c13-4.1,58-34.9,59-111.7S231.9,23.3,231.9,23.3c-3.7-1.9-7.5-3.3-11.4-4.4h-0.1"/>
		<path class="st2" d="M167,156.1c0,0-3.6-0.8-4.9-5.8c-2.4-9.5,6.7-12.6,6.7-12.6s9.2-23.6,1.2-35.6"/>
		<path class="st2" d="M202,156c0,0,8.4-5.4,5.4-11.7c-2.3-5-10.6-5.3-10.6-5.3"/>
		<path class="st3" d="M198,155.3c0.7,0,1.5-2.9-2.9-2.9s-5.1,2.9-5.1,2.9s5.4-1.1,8.4-0.1"/>
		<path class="st3" d="M170.4,155.2c3-1,8.4,0.1,8.4,0.1s-0.7-2.9-5.1-2.9s-3.6,2.9-2.9,2.9"/>
		<path class="st4" d="M153.6,111.2c0,0,4.7-3.3,8.1,0c3.5,3.3,3.5,7.4,0,8.2C158.3,120.2,147.8,120.2,153.6,111.2z"/>
		<path class="st4" d="M198.5,112.4c0,0,6.3-3.6,9.4-0.7c3.1,2.8,1,7.1-2.1,7.8C202.6,120.2,193.2,120.2,198.5,112.4z"/>
		<path class="st5" d="M152.2,123.5c0,0,2.9,4.2,8.4,1.8"/>
		<path class="st6" d="M145.2,96.8c0,0,14.5-5,22.5,0"/>
		<path class="st6" d="M196.4,94.5c0,0,20.8-6.8,26.8,2.2"/>
		<path class="st7" d="M183.8,176.3c7.3,2.4,3.7-1.4,11.5-1.1c12.1,0.5,24.6-4.3,24.6-4.3l6.5-3.5c-2.2,2.1-10.9,7.6-15.7,11.8
			c-11.2,9.8-15.1,12.7-28.8,10.4c-10-1.6-20-9.2-23.8-12.4c-3.9-3.3-6.2-8.2-14.3-12.9l16.9,6.7C160.6,171,177.8,171,183.8,176.3z"
			/>
		<path class="st5" d="M125.5,186.4"/>
		<path class="st2" d="M290.8,239.5c0-27.8-26.1-27.8-26.1-27.8"/>
		<path class="st2" d="M92.8,238.4c-3-19,17.6-26.7,17.6-26.7"/>
	</g>
	<path class="st2" d="M219.9,18.9c0,0-30.8-8-57.8,0"/>
	<path class="st8" d="M162.7,196.2c0,0,20.5,22.1,44.7,5.8"/>
	<path class="st8" d="M131.2,186.8"/>
	<path class="st8" d="M219.9,152.4c0,0-1,13.3,19.8,14.3c0,0,6.3,0,10.3,15.5"/>
	<path class="st2" d="M198.6,18.9c0,0-18.6,18.2-2.1,34.1"/>
	<path class="st7" d="M151.9,146.9c0,0-0.9,9.4-11.5,17.3c-10.7,7.9-11,18-11,18"/>
	<path class="st5" d="M209.4,123.5c-7.9,6-12.5,0-12.5,0"/>
</g>
</svg>
